PathFileType	4	(X/Y/Z)	Kaydara	
DataRate	CameraRate	NumFrames	NumMarkers	Units	OrigDataRate	OrigDataStartFrame	OrigNumFrames	
240.00	240.00	4	72	mm	240.00	1	355	
Frame#	Time	Hips			RightUpLeg			RightLeg			RightFoot			RightFoot_End			LeftUpLeg			LeftLeg			LeftFoot			LeftFoot_End			Spine			Spine1			Spine2			Spine3			Neck			Head			Head_End			RightShoulder			RightArm			RightForeArm			RightHand			RightHandThumb1			RightHandThumb2			RightHandThumb3			RightHandThumb3_End			RightInHandIndex			RightHandIndex1			RightHandIndex2			RightHandIndex3			RightHandIndex3_End			RightInHandMiddle			RightHandMiddle1			RightHandMiddle2			RightHandMiddle3			RightHandMiddle3_End			RightInHandRing			RightHandRing1			RightHandRing2			RightHandRing3			RightHandRing3_End			RightInHandPinky			RightHandPinky1			RightHandPinky2			RightHandPinky3			RightHandPinky3_End			LeftShoulder			LeftArm			LeftForeArm			LeftHand			LeftHandThumb1			LeftHandThumb2			LeftHandThumb3			LeftHandThumb3_End			LeftInHandIndex			LeftHandIndex1			LeftHandIndex2			LeftHandIndex3			LeftHandIndex3_End			LeftInHandMiddle			LeftHandMiddle1			LeftHandMiddle2			LeftHandMiddle3			LeftHandMiddle3_End			LeftInHandRing			LeftHandRing1			LeftHandRing2			LeftHandRing3			LeftHandRing3_End			LeftInHandPinky			LeftHandPinky1			LeftHandPinky2			LeftHandPinky3			LeftHandPinky3_End			
		X1	Y1	Z1	X2	Y2	Z2	X3	Y3	Z3	X4	Y4	Z4	X5	Y5	Z5	X6	Y6	Z6	X7	Y7	Z7	X8	Y8	Z8	X9	Y9	Z9	X10	Y10	Z10	X11	Y11	Z11	X12	Y12	Z12	X13	Y13	Z13	X14	Y14	Z14	X15	Y15	Z15	X16	Y16	Z16	X17	Y17	Z17	X18	Y18	Z18	X19	Y19	Z19	X20	Y20	Z20	X21	Y21	Z21	X22	Y22	Z22	X23	Y23	Z23	X24	Y24	Z24	X25	Y25	Z25	X26	Y26	Z26	X27	Y27	Z27	X28	Y28	Z28	X29	Y29	Z29	X30	Y30	Z30	X31	Y31	Z31	X32	Y32	Z32	X33	Y33	Z33	X34	Y34	Z34	X35	Y35	Z35	X36	Y36	Z36	X37	Y37	Z37	X38	Y38	Z38	X39	Y39	Z39	X40	Y40	Z40	X41	Y41	Z41	X42	Y42	Z42	X43	Y43	Z43	X44	Y44	Z44	X45	Y45	Z45	X46	Y46	Z46	X47	Y47	Z47	X48	Y48	Z48	X49	Y49	Z49	X50	Y50	Z50	X51	Y51	Z51	X52	Y52	Z52	X53	Y53	Z53	X54	Y54	Z54	X55	Y55	Z55	X56	Y56	Z56	X57	Y57	Z57	X58	Y58	Z58	X59	Y59	Z59	X60	Y60	Z60	X61	Y61	Z61	X62	Y62	Z62	X63	Y63	Z63	X64	Y64	Z64	X65	Y65	Z65	X66	Y66	Z66	X67	Y67	Z67	X68	Y68	Z68	X69	Y69	Z69	X70	Y70	Z70	X71	Y71	Z71	X72	Y72	Z72	

1	0.0	921.0129	906.651	56.2195	1006.0046846055649	894.6573274155296	4.39798991102029	924.4730468934051	495.1431862960439	-92.98351731064919	891.6159662454995	107.28375049147868	-159.781990364401	816.6718368450033	32.729347645807565	-0.5003539418649445	845.6299039302991	890.4805682978056	119.79307129976738	777.9212840085763	487.4037373847885	212.39268835777935	740.0434601883468	55.93648332347519	298.1954908695671	605.0259810899165	-16.4318682438767	183.27181984621382	875.4440283892368	1032.2451630289731	4.888301240325823	824.5999832120726	1096.4026278274534	-46.894487847339846	767.1402062286791	1157.2972539716063	-103.17708822578444	706.1395465214075	1206.10450919616	-160.80986919485522	640.6292608363244	1258.6331277184925	-221.71266780497703	579.7850857788161	1306.3904763287169	-276.31432333641897	463.3867147268753	1403.1423288780888	-327.5721513176412	685.6703362321167	1243.2914528527067	-223.42593481963402	740.8776792961376	1226.6206597771259	-334.3276106772225	756.3805996645758	950.4022948132206	-312.88373999393554	817.6379694958397	696.3200099096366	-337.9749294695573	819.3366514872786	672.0316520934764	-346.67609930314563	809.4003640942666	656.3214740231549	-353.283735895814	803.3798537216	644.3995228466483	-356.2809458370277	799.1299843035916	633.6211680830489	-357.40709797492923	824.2623299102008	664.6095826002971	-341.52056365292196	831.0218410479451	619.7642988655878	-341.8665051233806	827.4638537652281	597.507024737119	-343.189835384691	819.4599230502961	592.8619548045148	-345.8868397672092	808.9282470979028	595.2177085305767	-349.38341338294117	826.0798186458962	663.9267019120311	-337.1963939986687	833.6582772313877	619.8140360532988	-335.19455828281707	829.9833699822607	595.5934551173214	-336.0682453444673	820.4265160864257	590.021307894985	-339.04839871448485	808.9513573761794	592.6144768951732	-342.7412383103684	827.2824895957452	664.4824005473291	-334.11113101522983	835.3848909005925	625.1202491630104	-329.57620501603344	832.3810343120039	604.1482050480253	-329.7581678576817	823.2684661678284	598.8471127161794	-332.32499554500447	812.5290426388186	601.3202646190013	-335.6513436224893	827.7550456194375	667.2588817604062	-330.7138418186525	835.7857637133493	632.4969241362904	-324.38829369693406	833.6551594906438	616.0921223949902	-323.64977177566533	827.1413294787276	612.413571907606	-325.09429370000476	817.7044484536783	614.7126329890299	-327.794745081976	638.3862590827495	1239.6758878322796	-178.009922713417	573.8873384585513	1177.2097053020914	-81.35848220517848	697.3755616888861	986.6180353982656	-198.11798867802483	862.7409529743344	794.2622707474765	-301.14836083520316	848.5662360775269	781.8929018255774	-319.5581814416987	844.5181467297731	761.4763902371469	-353.3377260240027	842.4975646568025	745.3924859759085	-377.4027089962384	841.496196876324	730.3878515730447	-397.9273846848553	849.1178680387632	773.9982356405235	-322.1413455702569	835.6353366248502	736.4166986714869	-360.7572712830055	831.6493271976159	710.6442926418714	-393.2117425236288	832.5291160812534	699.2666149762287	-413.01534552059024	835.5223171111876	692.9825276835982	-429.1549524607425	852.0154560944327	770.2495964181143	-322.53378108400966	840.4307602349554	731.5659500993316	-360.4092717181684	836.5140330980225	703.07087906887	-395.75705259173895	837.7831623595656	689.1655127508951	-419.6174500712192	841.1592407723583	682.202757001235	-437.26159047345556	854.3543892983957	768.5366640128361	-321.7801620157639	845.8496658056722	732.3125712037433	-354.93698156345295	842.8970274582941	707.1569089062908	-385.6190791140406	844.3661371701684	693.5745526881808	-408.5667933464921	847.6565798907052	686.9474742372714	-425.12472245159955	857.852423618278	767.8366404035493	-320.15091439016715	852.0287487138692	734.0894249423203	-349.41766545685425	850.4213975975892	713.605778087246	-373.64411012558566	851.8591580302732	703.5343252598688	-390.2165194841423	854.9846974392998	697.5691766902739	-404.7887651318628
2	0.004	921.0129	906.651	56.2195	1006.0323267212644	894.6649983669301	4.402520939622373	924.4631192115266	495.1431337015825	-92.9127348990055	891.6776358085775	107.28982699768159	-159.72912688735116	816.7273933973239	32.7350936909559	-0.45056498117884497	845.598007171981	890.4701345662417	119.78597517261002	777.9714399115647	487.37941963354353	212.3863907511657	740.1069449744687	55.911335066375564	298.18968582785027	605.0771573671209	-16.437862593617115	183.26561239815678	875.4622253125837	1032.257232473879	4.899370371001554	824.643208948577	1096.4308966521799	-46.89146466149648	767.2099109417743	1157.3414692033666	-103.18922678483199	706.2325377791335	1206.1571082188045	-160.8484185376439	640.7471851202376	1258.6946001407935	-221.7802203544279	579.9238387181344	1306.4576945326148	-276.4094138737373	463.5071404983918	1403.1730696262782	-327.7001427866385	685.8101071292633	1243.3715502634327	-223.48344352997466	741.2166441031173	1226.8985968395384	-334.496047288185	756.6338848724674	950.571477362707	-313.4137074714996	817.8196268902649	696.6860614239479	-339.36393750374884	819.5372264540639	672.5068994885617	-348.1406850614476	809.5631632947186	656.873599203291	-354.87008913376525	803.5111379122147	644.9951404238404	-357.95910856338753	799.2305374656563	634.2444302711642	-359.16781274725355	824.4502626331293	665.0605108837179	-343.0163856721618	831.1814704042313	620.3002921500569	-343.5551916645761	827.5808891320177	598.0931644978513	-345.01720889756433	819.5443417325745	593.4758724514987	-347.7822083509217	808.9815427281368	595.8523352227236	-351.32275957497575	826.2534789891685	664.3468920040604	-338.7047846398443	833.7966228969319	620.3005780883192	-336.89786394559667	830.0734126255398	596.1303665548073	-337.923933586604	820.4763448589255	590.5896579268575	-340.9866108912723	808.966708218551	593.2044790133077	-344.72782383019575	827.4469933988661	664.8787517918483	-335.62352941181666	835.5103440450065	625.555498912293	-331.26687738473714	832.462583080418	604.6228103437298	-331.5824029710965	823.3102636022863	599.3496212156824	-334.2292311640934	812.5379678962389	601.8419931359906	-337.6012584633708	827.9082775842011	667.6249441388295	-332.2249574791019	835.8968816104765	632.8801688538573	-326.06231461833715	833.7284728359034	616.4996237095808	-325.431153909909	827.1843713670564	612.8379261189755	-326.93421919081885	817.7176273649168	615.151986933519	-329.6752390550585	638.4641642305187	1239.7120649625142	-178.06721293703504	573.8137672179744	1177.1194957041457	-81.4220236188038	697.2204930681404	986.6649412904437	-198.55302032829323	862.6638459640463	794.4822567686502	-302.0635091258816	848.4689122819252	782.1540159776979	-320.55148588527703	844.4017477559416	761.7354664662711	-354.3947912112133	842.3594859029627	745.6491422499785	-378.49615479869095	841.3328541901404	730.641647364879	-399.0442953098048	848.9850827006679	774.2643763170825	-323.1130880462133	835.4014800652443	736.7288182821699	-361.78565224949386	831.363843252167	710.9626692519773	-394.2794175894784	832.2364871575887	699.5719925063529	-414.10952463190233	835.240610103745	693.2657573966973	-430.2724609095085	851.8642310848891	770.510206721825	-323.48172349189645	840.1709760675328	731.8684354004188	-361.3995872148672	836.1958344855232	703.3792724115702	-396.78691784915253	837.4553421045536	689.4577894821465	-420.67770145621074	840.8428970183793	682.4705936188436	-438.34658960853915	854.1924575726655	768.7924622739777	-322.70980510494906	845.5803668505467	732.602488528848	-355.88858987990056	842.5748593423059	707.4509869843708	-386.60170502217494	844.0336668163612	693.8525505325864	-409.57688579236464	847.334392891813	687.2022416115107	-426.1572233655192	857.6831646307605	768.083487225655	-321.05814119689853	851.7555756178144	734.3629336348466	-350.3311126839845	850.1033073956478	713.880905738074	-374.57688561091857	851.532304892951	703.7969013137546	-391.1666654033707	854.6662407449256	697.8106973032499	-405.7572338485539
3	0.008	921.0129	906.651	56.2195	1006.0526678340035	894.6724944413899	4.404985666028579	924.4723477985631	495.14241631254356	-92.86452609058556	891.7526933362509	107.29583951455281	-159.69821636895924	816.797286894107	32.7412827655385	-0.4220587133943241	845.5740509672426	890.4598744296305	119.78008491142951	778.0463099659462	487.35387297674697	212.38693432751523	740.1152596279396	55.881796453918966	298.0270111849059	605.0848141998868	-16.476053386648353	183.10870187014552	875.4777784076516	1032.269423182207	4.914415467147756	824.6595710221706	1096.4499159781305	-46.864043802036115	767.229276854051	1157.3679903021393	-103.15210355675481	706.249863126352	1206.1842272064853	-160.80389977158757	640.7622001757256	1258.7214692930797	-221.72900354550762	579.935604311031	1306.482061842045	-276.3535294400652	463.51082428710845	1403.1719795044178	-327.67910465992	685.8417046048985	1243.4165860249293	-223.43657769033996	741.4428185675483	1227.1358845783898	-334.552559460737	756.7975795705203	950.6950789647276	-313.83119384486923	817.9655151997123	696.97542330537	-340.58183009991217	819.7059663452951	672.8894931371883	-349.4206466446893	809.7079393490931	657.315797015229	-356.25553440520997	803.6352257426156	645.470087060597	-359.42584023245024	799.3339787157125	634.7391924450814	-360.7089925052791	824.6105665121447	665.4222633684013	-344.3296049696398	831.3326166862139	620.7315086690011	-345.0453416935779	827.7054574496021	598.5620062036095	-346.6331552284153	819.6452751030096	593.9639835463913	-349.45773228681287	809.0580818993574	596.3536129560457	-353.0350377601047	826.4022875275647	664.6818900931643	-340.0332740666032	833.9302846363653	620.6888589693602	-338.40717527530967	830.1765694306607	596.5559441825366	-339.57195251623426	820.550236525235	591.0366703371025	-342.7072128624594	809.0135678839223	593.6650118903548	-346.4889546465283	827.5880741047575	665.1931437714472	-336.9583359582117	835.6316862507723	625.8999392329105	-332.7694000265722	832.5558061159228	604.9958236088146	-333.20702309196963	823.3744575593186	599.7412323686968	-335.9244926754518	812.5763588967304	602.2453208671047	-339.33492889014866	828.0393457101467	667.913055973917	-333.5614742449647	836.0042505942548	633.1798885112464	-327.5539662642697	833.8110290421296	616.8159538064143	-327.02169343405467	827.2446456659263	613.1647688021613	-328.5768275711238	817.7544033337942	615.4874696421641	-331.3521937343539	638.4631548973963	1239.7203100022152	-178.01536825364954	573.6587380572668	1177.0087114202192	-81.38233021700135	696.9938981531536	986.6650845427808	-198.7728498287449	862.5302696602312	794.6508796266893	-302.75212380327673	848.3197349407045	782.3679896265078	-321.3070082097056	844.2327987705854	761.9517479906249	-355.2007264258144	842.1682337168656	745.8651773398695	-379.32981640768946	841.1157184532698	730.855874082356	-399.89477598092094	848.8009691635365	774.4803774322878	-323.84857340059824	835.1211296942231	736.9905099297481	-362.56427958340413	831.0321307386279	711.2317408102292	-395.08664919330386	831.8958266279759	699.8302456471863	-414.93641984780254	834.9080503798782	693.5046506431071	-431.1169132432088	851.6609906788314	770.7183741584265	-324.1955867803832	839.8635318530482	732.1169228362166	-362.14382645381505	835.8301553355707	703.634619984194	-397.55937668064405	837.077824848652	689.699500860158	-421.47244764429365	840.4737216191885	682.6908237334911	-439.15985706307555	853.9779369786512	768.9941777534136	-323.40726581907927	845.2619759205563	732.8354513203275	-356.59895898112336	842.2036410356584	707.6886179050654	-387.33355675080855	843.6499182261168	694.076330822708	-410.32859416196123	846.9579770842222	687.4055025819548	-426.9255445643553	857.4602636154036	768.2744992102167	-321.7356389686329	851.431429470412	734.5768571588048	-351.00807028912055	849.7340727271658	714.0963951115675	-375.2661489067782	851.1525879646205	704.0012250741704	-391.86804301142104	854.292245633546	697.9962443965896	-406.4719593097003
4	0.013	921.0129	906.651	56.2195	1006.073016263587	894.6736678705671	4.412248179743095	924.4770314524937	495.14134292081815	-92.83087579747476	891.8197175372768	107.30010633699155	-159.6715179925881	816.8570020562718	32.73900674219826	-0.4019867545405509	845.5483076194474	890.4561715940317	119.77131958018893	778.1961590817605	487.32295423302725	212.3872286032329	740.0485074100118	55.85500004260954	297.70017675653816	605.0190935750168	-16.498771045284588	182.77717847529502	875.5012663327672	1032.2807044490776	4.920778231570056	824.66586206753	1096.4578091195513	-46.83426041059304	767.2188588262057	1157.3712721077713	-103.09822730061775	706.2159906304678	1206.1780344188069	-160.71795514731937	640.7026065716918	1258.7026704373868	-221.61060231751335	579.8523892005455	1306.4498655377984	-276.207648725519	463.423730958586	1403.1198793989029	-327.5663033982678	685.7941577290803	1243.4145054437622	-223.3325444512405	741.5922939361462	1227.3176534481702	-334.54337200007814	756.8818997132781	950.762077624009	-314.19090991241825	818.059311691235	697.1954598454926	-341.7015009571841	819.8248992741627	673.1941331807706	-350.5942670421758	809.8110920142342	657.6705630258208	-357.52478970856674	803.7240932033112	645.8517353148104	-360.7700046381476	799.4081146447594	635.1364027513739	-362.1227213177	824.7234694106081	665.7081462533209	-345.53764594901685	831.447465251471	621.0787751254865	-346.4205425514171	827.8031169780644	598.9402081307551	-348.1263314738686	819.7246087575772	594.3567319785848	-351.0054093486761	809.1170909563236	596.7552248045326	-354.61510923123984	826.505269519961	664.943286527054	-341.2581647766787	834.0298181411324	620.9968811883699	-339.8042254810679	830.256011189987	596.8942888493365	-341.0994161107477	820.6069268400743	591.3909083408873	-344.30122964772454	809.0477007168683	594.0281332048542	-348.1188164167273	827.6841859534048	665.4357507762527	-338.1909338949175	835.7192074222114	626.1682632777225	-334.1631951762612	832.624457913362	605.2869760280151	-334.7159196368557	823.4204336414998	600.0457947178528	-337.49835847416995	812.6007894689551	602.557347331338	-340.9428612656943	828.1261531776072	668.1316182718498	-334.7975450962522	836.0780064321073	633.4074821517311	-328.9403246388826	833.8675807808437	617.0560987502312	-328.50177977673854	827.2836395258618	613.4119356766254	-330.1050682458928	817.7737273958979	615.7396509517522	-332.911028407715	638.4081445118379	1239.6928156287734	-177.90379630792904	573.4497478603719	1176.8660094732518	-81.28636505750087	696.7367500735593	986.6577372685485	-199.02302062107148	862.3993132694104	794.8013839608362	-303.38832626003045	848.1757227441889	782.565916777715	-322.0055475618516	844.0688985070377	762.1559057031874	-355.9436832978775	841.9819109992486	746.0713915992679	-380.0967560728853	840.9033692213005	731.0618553853208	-400.67573805746554	848.6224306843894	774.6787892091427	-324.5283577519625	834.8494244445906	737.2351969728419	-363.2827820534057	830.7095534047229	711.4858053658577	-395.82957212246276	831.5635132943755	700.0758478074894	-415.6957898341693	834.5824260186215	693.733630633681	-431.89075256399025	851.463068603615	770.9079087154207	-324.8549639349089	839.5642409060133	732.3468014590072	-362.82994706696036	835.4731073071578	703.8733705296083	-398.2693198653023	836.7079493833677	689.9274017246416	-422.20087916132417	840.1106404624151	682.9002330516838	-439.9034594089081	853.7684696423698	769.1764846716997	-324.05123892155535	844.9510100105001	733.0483063658813	-357.25348936205955	841.8402190017017	707.9077509556149	-388.00591780629605	843.2729823109185	694.2842459795783	-411.01723507731236	846.5868952824222	687.5956572139377	-427.62772535146075	857.2418967242011	768.4453533693454	-322.3608207303258	851.1137261145437	734.769446683979	-351.631327646735	849.371502698046	714.291631775992	-375.89907569004663	850.7787646195843	704.1871133782066	-392.5106129557165	853.9228119826373	698.1657415813393	-407.1252321798766
